<?xml version="1.0" encoding="iso-8859-1"?>
<!-- Generator: Adobe Illustrator 19.0.0, SVG Export Plug-In . SVG Version: 6.00 Build 0)  -->
<svg version="1.1" id="Capa_1" xmlns="http://www.w3.org/2000/svg" xmlns:xlink="http://www.w3.org/1999/xlink" x="0px" y="0px"
	 viewBox="0 0 480 480" style="enable-background:new 0 0 480 480;" xml:space="preserve">
<path style="fill:#2D75BB;" d="M8,152h464v272H8V152z"/>
<circle style="fill:#FDBD40;" cx="240" cy="288" r="136"/>
<circle style="fill:#F4F4E6;" cx="240" cy="288" r="96"/>
<path style="fill:#7D8D9C;" d="M184,296c-4.418,0-8-3.582-8-8c0.04-35.33,28.67-63.96,64-64c4.418,0,8,3.582,8,8s-3.582,8-8,8
	c-26.499,0.026-47.974,21.501-48,48C192,292.418,188.418,296,184,296z"/>
<path style="fill:#FDBD40;" d="M344,56h128v96H344V56z"/>
<path style="fill:#F4F4E6;" d="M376,88h64v32h-64V88z"/>
<path style="fill:#FDBD40;" d="M24,120h80v32H24V120z"/>
<g>
	<path style="fill:#FCF05A;" d="M136,120h48v32h-48V120z"/>
	<circle style="fill:#FCF05A;" cx="392" cy="376" r="16"/>
</g>
<g>
	<path style="fill:#FDBD40;" d="M40,400c-4.418,0-8-3.582-8-8v-16c0-4.418,3.582-8,8-8s8,3.582,8,8v16C48,396.418,44.418,400,40,400
		z"/>
	<path style="fill:#FDBD40;" d="M72,400c-4.418,0-8-3.582-8-8v-16c0-4.418,3.582-8,8-8s8,3.582,8,8v16C80,396.418,76.418,400,72,400
		z"/>
</g>
<path d="M240,392c57.438,0,104-46.562,104-104s-46.562-104-104-104s-104,46.562-104,104C136.066,345.41,182.59,391.934,240,392z
	 M240,200c48.601,0,88,39.399,88,88s-39.399,88-88,88s-88-39.399-88-88C152.057,239.423,191.423,200.057,240,200z"/>
<path d="M184,296c4.418,0,8-3.582,8-8c0.026-26.499,21.501-47.974,48-48c4.418,0,8-3.582,8-8s-3.582-8-8-8
	c-35.33,0.04-63.96,28.67-64,64C176,292.418,179.582,296,184,296z"/>
<path d="M472,48H344c-4.418,0-8,3.582-8,8v88H192v-24c0-4.418-3.582-8-8-8h-48c-4.418,0-8,3.582-8,8v24h-16v-24c0-4.418-3.582-8-8-8
	H24c-4.418,0-8,3.582-8,8v24H8c-4.418,0-8,3.582-8,8v272c0,4.418,3.582,8,8,8h464c4.418,0,8-3.582,8-8V56
	C480,51.582,476.418,48,472,48z M352,64h112v80H352V64z M240,160c70.692,0,128,57.308,128,128s-57.308,128-128,128
	s-128-57.308-128-128C112.084,217.342,169.342,160.084,240,160z M144,128h32v16h-32V128z M32,128h64v16H32V128z M16,416V160h158.336
	c-70.692,36.124-98.715,122.717-62.591,193.409c13.76,26.928,35.663,48.831,62.591,62.591H16z M464,416H305.664
	c70.692-36.124,98.715-122.717,62.591-193.409c-13.76-26.928-35.663-48.831-62.591-62.591H464V416z"/>
<path d="M440,80h-64c-4.418,0-8,3.582-8,8v32c0,4.418,3.582,8,8,8h64c4.418,0,8-3.582,8-8V88C448,83.582,444.418,80,440,80z
	 M432,112h-48V96h48V112z"/>
<path d="M368,376c0,13.255,10.745,24,24,24s24-10.745,24-24s-10.745-24-24-24S368,362.745,368,376z M392,368c4.418,0,8,3.582,8,8
	s-3.582,8-8,8s-8-3.582-8-8S387.582,368,392,368z"/>
<path d="M40,368c-4.418,0-8,3.582-8,8v16c0,4.418,3.582,8,8,8s8-3.582,8-8v-16C48,371.582,44.418,368,40,368z"/>
<path d="M72,368c-4.418,0-8,3.582-8,8v16c0,4.418,3.582,8,8,8s8-3.582,8-8v-16C80,371.582,76.418,368,72,368z"/>
<g>
</g>
<g>
</g>
<g>
</g>
<g>
</g>
<g>
</g>
<g>
</g>
<g>
</g>
<g>
</g>
<g>
</g>
<g>
</g>
<g>
</g>
<g>
</g>
<g>
</g>
<g>
</g>
<g>
</g>
</svg>
